# xmcd
#
# Track frame offsets:
#	150
#	34110
#	62346
#	84506
#	98249
#	146246
#	174107
#	183120
#	208584
#	230939
#	293457
#
# Disc length: 4383 seconds
#
# Revision: 1
# Processed by: cddbd v1.5.2PL0 Copyright (c) Steve Scherf et al.
# Submitted via: audiograbber 1.83.01
#
DISCID=90111d0b
DTITLE=Various Artist - Ann Arbor Blues Festival 1969 - Vols.1&2 [CD2]
DYEAR=1969
DGENRE=Blues
TTITLE0=Muddy Waters - Long Distance Call
TTITLE1=Charlie Musselwhite - Movin' and Groovin'
TTITLE2=Magic Sam - I Feel So Food (I Wanna Boogie)
TTITLE3=Shirley Griffith - Jelly Jelly Blues
TTITLE4=T-Bone Walker - Call It Stormy Monday (But Tuesday is Just as Bad)
TTITLE5=Big Mama Thornton and the Hound Doggers - Ball and Chain
TTITLE6=Big Joe Williams - Juanita
TTITLE7=Sam Lay - Key to the Highway
TTITLE8=Lightnin' Hopkins - Mojo Hand
TTITLE9=James Cotton Blues Band - Off the Wall
TTITLE10=Son House - Death Letter Blues
EXTD=
EXTT0=
EXTT1=
EXTT2=
EXTT3=
EXTT4=
EXTT5=
EXTT6=
EXTT7=
EXTT8=
EXTT9=
EXTT10=
PLAYORDER=
